<?xml version="1.0" encoding="utf-8"?>
<!-- Generator: Adobe Illustrator 22.0.0, SVG Export Plug-In . SVG Version: 6.00 Build 0)  -->
<svg version="1.1" id="Layer_1" xmlns="http://www.w3.org/2000/svg" xmlns:xlink="http://www.w3.org/1999/xlink" x="0px" y="0px"
	 viewBox="0 0 205.1 119" style="enable-background:new 0 0 205.1 119;" xml:space="preserve">
<style type="text/css">
	.st0{fill:#FFFFFF;}
</style>
<g>
	<rect x="0.5" y="69.9" class="st0" width="193.3" height="3"/>
	<g>
		<path class="st0" d="M39.1,60.5h-4.9L17.4,42.2H4.2v18.3H0.5V12.1c7.1,0,14.2,0,21.3,0c10.5,0,15.9,7.5,15.9,15.1
			C37.8,35.1,32.6,42,22,42L39.1,60.5z M4.2,38.7h17.2c8.4,0,12.2-4.8,12.3-11.6c0.1-5.7-3.8-11.6-11.8-11.6H4.2V38.7z"/>
		<path class="st0" d="M92.1,36.4c-0.1,12.7-8.2,25-24.4,25c-16.3,0-24.4-12.3-24.4-25.1c0-13,8.1-24.9,24.4-24.9
			S92.2,23.3,92.1,36.4z M46.9,36.3c0.1,10.9,7,21.6,20.8,21.6s20.8-10.7,20.8-21.6c0-11.2-6.9-21.5-20.8-21.5S46.9,24.9,46.9,36.3z
			"/>
		<path class="st0" d="M130.5,12.2h4v0.1L118,35.8l17.8,24.8v0.1h-4.4l-15.6-22.1l-15.6,21.9h-4.4v-0.1l17.8-24.8L97.1,12.1V12h4.1
			l14.7,20.7L130.5,12.2z"/>
		<path class="st0" d="M142.8,59.4c0,2-3.1,2-3.1,0C139.8,57.4,142.8,57.4,142.8,59.4z"/>
		<path class="st0" d="M150.4,33.2v25.3h15.4v2h-17.5V33.2H150.4z"/>
		<path class="st0" d="M191.5,60.5l-3-6.7h-16.3l-3,6.7h-2.3l12.3-27.3h2.3l12.2,27.3H191.5z M187.6,51.9l-7.3-16.6L173,51.9H187.6z
			"/>
	</g>
	<g>
		<path class="st0" d="M17.5,88.2c0.1,5.1-3.1,10.2-10.2,10.2c-2.3,0-4.5,0-6.8,0v-20c2.3,0,4.5,0,6.8,0
			C14.1,78.5,17.4,83.3,17.5,88.2z M2.1,79.9V97h5.2c6,0,8.7-4.5,8.6-8.8c-0.1-4.2-2.8-8.3-8.6-8.3C7.3,79.9,2.1,79.9,2.1,79.9z"/>
		<path class="st0" d="M20.5,91.4c0-4.2,3.2-7.3,7.2-7.3s7.5,2.4,7,8H21.9c0.3,3.3,2.8,5.2,5.8,5.2c1.9,0,4-0.7,5.1-2.1l1,0.8
			c-1.4,1.8-3.8,2.7-6.1,2.7C23.7,98.7,20.5,95.9,20.5,91.4z M33.4,90.9c0-3.5-2.3-5.4-5.7-5.4c-2.9,0-5.4,2-5.8,5.4H33.4z"/>
		<path class="st0" d="M48,86.9c-1.4-1.3-2.8-1.5-4.4-1.5c-2.2,0-4.3,0.8-4.3,2.6c0.1,1.9,2.5,2.3,4.3,2.6c2.5,0.4,6,0.9,5.8,4.1
			c-0.1,3.1-3.3,3.9-5.8,3.9s-4.9-0.9-6.2-2.8l1-0.9c1.2,1.7,3.3,2.4,5.2,2.4c1.7,0,4.3-0.5,4.4-2.7c0.1-2-2.3-2.4-4.6-2.8
			c-2.7-0.5-5.5-1-5.5-3.8s2.7-4,5.6-3.9c2.1,0,3.9,0.6,5.3,1.9L48,86.9z"/>
		<path class="st0" d="M54.4,79.8c0,1.5-2.3,1.5-2.3,0S54.4,78.3,54.4,79.8z M52.6,84.3v14.2H54V84.3H52.6z"/>
		<path class="st0" d="M69.3,83.8l0.9,0.8l-1.4,1.6c1,1.1,1.7,2.5,1.7,4.8c0,2.5-1.5,4.9-3.8,6c2.5,0.9,3.9,2.6,3.9,5.1
			c0,3.8-3,5.6-6.7,5.6c-3.7,0-6.7-2.1-6.7-5.6h1.4c0,2.9,2.5,4.3,5.3,4.3c2.8,0,5.3-1.3,5.3-4.3s-2.7-4.2-5.3-4.2
			c-4.1,0-6.6-3.1-6.6-6.8c0-4.4,3-6.9,6.6-6.9c1.4,0,2.9,0.5,4,1.3L69.3,83.8z M58.7,91c0,2.9,2,5.4,5.2,5.4c2.9,0,5.3-2.5,5.3-5.4
			c0-3.6-2.4-5.5-5.3-5.5C61.1,85.5,58.7,87.3,58.7,91z"/>
		<path class="st0" d="M74.9,84.4v2.5c1.1-1.9,3.1-2.7,5-2.8c3.8,0,6.4,2.3,6.4,6.2v8.2h-1.4v-8.1c0-3.2-2-4.9-5-4.9
			c-2.9,0-4.9,2.2-4.9,5.1v7.9h-1.4V84.4H74.9z"/>
		<path class="st0" d="M114,98.5l-2.2-4.9h-12l-2.2,4.9h-1.7l9-20h1.7l9,20H114z M111.2,92.1L105.8,80l-5.4,12.2L111.2,92.1
			L111.2,92.1z"/>
		<path class="st0" d="M129.6,83.8l0.9,0.8l-1.4,1.6c1,1.1,1.7,2.5,1.7,4.8c0,2.5-1.5,4.9-3.8,6c2.5,0.9,3.9,2.6,3.9,5.1
			c0,3.8-3,5.6-6.7,5.6s-6.7-2.1-6.7-5.6h1.4c0,2.9,2.5,4.3,5.3,4.3s5.3-1.3,5.3-4.3s-2.7-4.2-5.3-4.2c-4.1,0-6.6-3.1-6.6-6.8
			c0-4.4,3-6.9,6.6-6.9c1.4,0,2.9,0.5,4,1.3L129.6,83.8z M119,91c0,2.9,2,5.4,5.2,5.4c2.9,0,5.3-2.5,5.3-5.4c0-3.6-2.4-5.5-5.3-5.5
			C121.3,85.5,119,87.3,119,91z"/>
		<path class="st0" d="M133,91.4c0-4.2,3.2-7.3,7.2-7.3s7.5,2.4,7,8h-12.7c0.3,3.3,2.8,5.2,5.8,5.2c1.9,0,4-0.7,5.1-2.1l1,0.8
			c-1.4,1.8-3.8,2.7-6.1,2.7C136.2,98.7,133,95.9,133,91.4z M145.9,90.9c0-3.5-2.3-5.4-5.7-5.4c-2.9,0-5.4,2-5.8,5.4H145.9z"/>
		<path class="st0" d="M152.1,84.4v2.5c1.1-1.9,3.1-2.7,5-2.8c3.8,0,6.4,2.3,6.4,6.2v8.2h-1.3v-8.1c0-3.2-2-4.9-5-4.9
			c-2.9,0-4.9,2.2-4.9,5.1v7.9h-1.4V84.4H152.1z"/>
		<path class="st0" d="M178.8,96.5c-1.4,1.4-3.3,2.1-5.1,2.1c-4,0-7.3-2.7-7.3-7.2s3.2-7.2,7.3-7.2c1.9,0,3.7,0.7,5.1,2.1l-0.9,0.9
			c-1.1-1.1-2.7-1.7-4.2-1.7c-3.2,0-5.9,2.1-5.9,5.9s2.7,5.9,5.9,5.9c1.5,0,3.1-0.6,4.2-1.7L178.8,96.5z"/>
		<path class="st0" d="M193.7,84.4l-8.6,20h-1.5l2.6-6.1l-5.7-14h1.5l3.3,8.4l1.7,4.1l1.6-4.1l3.5-8.3H193.7z"/>
	</g>
</g>
</svg>
